<mxfile host="65bd71144e">
    <diagram id="x9bcelpgYHxCwuGAqYpQ" name="Page-1">
        <mxGraphModel dx="2077" dy="907" grid="1" gridSize="10" guides="1" tooltips="1" connect="1" arrows="1" fold="1" page="1" pageScale="1" pageWidth="1169" pageHeight="827" math="0" shadow="0">
            <root>
                <mxCell id="0"/>
                <mxCell id="1" parent="0"/>
                <mxCell id="7" value="&lt;u&gt;&lt;font style=&quot;font-size: 16px;&quot;&gt;Hub&lt;/font&gt;&lt;/u&gt;" style="swimlane;whiteSpace=wrap;html=1;startSize=30;" vertex="1" parent="1">
                    <mxGeometry x="370" y="10" width="510" height="390" as="geometry">
                        <mxRectangle x="140" y="160" width="140" height="30" as="alternateBounds"/>
                    </mxGeometry>
                </mxCell>
                <mxCell id="50" style="edgeStyle=none;html=1;startArrow=none;startFill=0;endArrow=classic;endFill=1;fillColor=#e51400;strokeColor=#B20000;" edge="1" parent="7" source="13" target="43">
                    <mxGeometry relative="1" as="geometry"/>
                </mxCell>
                <mxCell id="13" value="Battery (short-term backup power)" style="rounded=0;whiteSpace=wrap;html=1;" vertex="1" parent="7">
                    <mxGeometry x="370" y="140" width="120" height="50" as="geometry"/>
                </mxCell>
                <mxCell id="20" value="Pi Shield" style="swimlane;whiteSpace=wrap;html=1;" vertex="1" parent="7">
                    <mxGeometry x="20" y="50" width="330" height="210" as="geometry"/>
                </mxCell>
                <mxCell id="35" value="WiFi/Ethernet connection" style="rounded=0;whiteSpace=wrap;html=1;" vertex="1" parent="20">
                    <mxGeometry x="15" y="90" width="140" height="50" as="geometry"/>
                </mxCell>
                <mxCell id="34" value="GSM module&lt;br&gt;(SMS, backup internet)" style="rounded=0;whiteSpace=wrap;html=1;" vertex="1" parent="20">
                    <mxGeometry x="15" y="30" width="140" height="50" as="geometry"/>
                </mxCell>
                <mxCell id="42" value="Battery charger" style="rounded=0;whiteSpace=wrap;html=1;" vertex="1" parent="20">
                    <mxGeometry x="175" y="90" width="140" height="50" as="geometry"/>
                </mxCell>
                <mxCell id="43" value="5V 2A regulator" style="rounded=0;whiteSpace=wrap;html=1;" vertex="1" parent="20">
                    <mxGeometry x="175" y="150" width="140" height="50" as="geometry"/>
                </mxCell>
                <mxCell id="49" value="User interface (LEDs, OLED display)" style="rounded=0;whiteSpace=wrap;html=1;" vertex="1" parent="20">
                    <mxGeometry x="175" y="30" width="140" height="50" as="geometry"/>
                </mxCell>
                <mxCell id="46" style="edgeStyle=none;html=1;startArrow=classic;startFill=1;endArrow=classic;endFill=1;" edge="1" parent="7" source="26" target="43">
                    <mxGeometry relative="1" as="geometry"/>
                </mxCell>
                <mxCell id="26" value="12V PSU" style="rounded=0;whiteSpace=wrap;html=1;" vertex="1" parent="7">
                    <mxGeometry x="370" y="200" width="120" height="50" as="geometry"/>
                </mxCell>
                <mxCell id="51" style="edgeStyle=none;html=1;entryX=0.5;entryY=1;entryDx=0;entryDy=0;startArrow=classic;startFill=1;endArrow=classic;endFill=1;" edge="1" parent="7" source="38" target="20">
                    <mxGeometry relative="1" as="geometry"/>
                </mxCell>
                <mxCell id="38" value="RaspberryPi" style="swimlane;whiteSpace=wrap;html=1;" vertex="1" parent="7">
                    <mxGeometry x="20" y="290" width="330" height="80" as="geometry"/>
                </mxCell>
                <mxCell id="40" value="MQTT?" style="rounded=0;whiteSpace=wrap;html=1;" vertex="1" parent="38">
                    <mxGeometry x="10" y="30" width="140" height="40" as="geometry"/>
                </mxCell>
                <mxCell id="41" value="Other services &amp;amp; SW?" style="rounded=0;whiteSpace=wrap;html=1;" vertex="1" parent="38">
                    <mxGeometry x="180" y="30" width="140" height="40" as="geometry"/>
                </mxCell>
                <mxCell id="47" style="edgeStyle=none;html=1;entryX=0;entryY=0.5;entryDx=0;entryDy=0;startArrow=none;startFill=0;endArrow=classic;endFill=1;" edge="1" parent="7" source="42" target="13">
                    <mxGeometry relative="1" as="geometry"/>
                </mxCell>
                <mxCell id="52" style="edgeStyle=none;html=1;entryX=0.5;entryY=1;entryDx=0;entryDy=0;startArrow=classic;startFill=1;endArrow=classic;endFill=1;" edge="1" parent="1" source="8" target="7">
                    <mxGeometry relative="1" as="geometry"/>
                </mxCell>
                <mxCell id="53" value="WiFi" style="edgeLabel;html=1;align=center;verticalAlign=middle;resizable=0;points=[];" vertex="1" connectable="0" parent="52">
                    <mxGeometry x="0.434" y="1" relative="1" as="geometry">
                        <mxPoint x="1" y="13" as="offset"/>
                    </mxGeometry>
                </mxCell>
                <mxCell id="8" value="&lt;u&gt;&lt;font style=&quot;font-size: 16px;&quot;&gt;Node&lt;/font&gt;&lt;/u&gt;" style="swimlane;whiteSpace=wrap;html=1;startSize=30;" vertex="1" parent="1">
                    <mxGeometry x="370" y="459.76" width="510" height="350" as="geometry">
                        <mxRectangle x="140" y="160" width="140" height="30" as="alternateBounds"/>
                    </mxGeometry>
                </mxCell>
                <mxCell id="21" value="Node PCB" style="swimlane;whiteSpace=wrap;html=1;" vertex="1" parent="8">
                    <mxGeometry x="20" y="50" width="340" height="290" as="geometry"/>
                </mxCell>
                <mxCell id="31" value="Battery charger" style="rounded=0;whiteSpace=wrap;html=1;" vertex="1" parent="21">
                    <mxGeometry x="190" y="100.12" width="130" height="50" as="geometry"/>
                </mxCell>
                <mxCell id="32" value="Low power regulator" style="rounded=0;whiteSpace=wrap;html=1;" vertex="1" parent="21">
                    <mxGeometry x="190" y="160.24" width="130" height="50" as="geometry"/>
                </mxCell>
                <mxCell id="63" value="3V3/5V regulator" style="rounded=0;whiteSpace=wrap;html=1;" vertex="1" parent="21">
                    <mxGeometry x="190" y="40" width="130" height="50" as="geometry"/>
                </mxCell>
                <mxCell id="80" value="&lt;b&gt;ESP32 S3&lt;/b&gt;&lt;br&gt;(WiFi connection, OTA updates...)" style="rounded=0;whiteSpace=wrap;html=1;" vertex="1" parent="21">
                    <mxGeometry x="20" y="40" width="150" height="80" as="geometry"/>
                </mxCell>
                <mxCell id="82" value="GPIO breakout &lt;br&gt;(digital inputs, outputs, analog inputs)" style="rounded=0;whiteSpace=wrap;html=1;" vertex="1" parent="21">
                    <mxGeometry x="20" y="130.23999999999998" width="150" height="69.76" as="geometry"/>
                </mxCell>
                <mxCell id="84" value="Communication breakout &lt;br&gt;(SPI, I2C, UART...)" style="rounded=0;whiteSpace=wrap;html=1;" vertex="1" parent="21">
                    <mxGeometry x="20" y="210.24" width="150" height="69.76" as="geometry"/>
                </mxCell>
                <mxCell id="86" value="Actuator breakout&lt;br&gt;(servo, open drain high current output... )" style="rounded=0;whiteSpace=wrap;html=1;" vertex="1" parent="21">
                    <mxGeometry x="190" y="220.24" width="130" height="59.76" as="geometry"/>
                </mxCell>
                <mxCell id="68" style="edgeStyle=none;sketch=0;html=1;fontSize=16;startArrow=none;startFill=0;endArrow=classic;endFill=1;entryX=1;entryY=0.5;entryDx=0;entryDy=0;" edge="1" parent="8" source="29" target="32">
                    <mxGeometry relative="1" as="geometry">
                        <mxPoint x="340" y="310" as="targetPoint"/>
                    </mxGeometry>
                </mxCell>
                <mxCell id="29" value="Battery (optional, instead of mains power)" style="rounded=0;whiteSpace=wrap;html=1;" vertex="1" parent="8">
                    <mxGeometry x="370" y="210.24" width="120" height="50" as="geometry"/>
                </mxCell>
                <mxCell id="67" style="edgeStyle=none;html=1;fontSize=16;startArrow=none;startFill=0;endArrow=classic;endFill=1;" edge="1" parent="8" source="31" target="29">
                    <mxGeometry relative="1" as="geometry"/>
                </mxCell>
                <mxCell id="27" value="" style="edgeStyle=none;html=1;entryX=1;entryY=0.5;entryDx=0;entryDy=0;startArrow=classic;startFill=1;endArrow=classic;endFill=1;" edge="1" parent="1" source="25" target="26">
                    <mxGeometry x="-0.125" relative="1" as="geometry">
                        <Array as="points"/>
                        <mxPoint as="offset"/>
                    </mxGeometry>
                </mxCell>
                <mxCell id="25" value="220V mains" style="rounded=0;whiteSpace=wrap;html=1;" vertex="1" parent="1">
                    <mxGeometry x="900" y="210" width="120" height="50" as="geometry"/>
                </mxCell>
                <mxCell id="73" style="edgeStyle=none;sketch=0;html=1;fontSize=16;startArrow=classic;startFill=1;endArrow=classic;endFill=1;" edge="1" parent="1" source="36" target="72">
                    <mxGeometry relative="1" as="geometry"/>
                </mxCell>
                <mxCell id="76" value="Internet" style="edgeLabel;html=1;align=center;verticalAlign=middle;resizable=0;points=[];fontSize=12;" vertex="1" connectable="0" parent="73">
                    <mxGeometry x="0.3401" relative="1" as="geometry">
                        <mxPoint y="7" as="offset"/>
                    </mxGeometry>
                </mxCell>
                <mxCell id="36" value="Internet router" style="rounded=0;whiteSpace=wrap;html=1;" vertex="1" parent="1">
                    <mxGeometry x="80" y="150" width="120" height="50" as="geometry"/>
                </mxCell>
                <mxCell id="37" style="edgeStyle=none;html=1;entryX=1;entryY=0.5;entryDx=0;entryDy=0;startArrow=classic;startFill=1;endArrow=classic;endFill=1;" edge="1" parent="1" source="35" target="36">
                    <mxGeometry relative="1" as="geometry"/>
                </mxCell>
                <mxCell id="55" value="Network (WiFi/Eth)" style="edgeLabel;html=1;align=center;verticalAlign=middle;resizable=0;points=[];" vertex="1" connectable="0" parent="37">
                    <mxGeometry x="0.2542" relative="1" as="geometry">
                        <mxPoint x="9" as="offset"/>
                    </mxGeometry>
                </mxCell>
                <mxCell id="69" style="edgeStyle=none;sketch=0;html=1;entryX=1;entryY=0.5;entryDx=0;entryDy=0;fontSize=16;startArrow=none;startFill=0;endArrow=classic;endFill=1;" edge="1" parent="1" source="62" target="63">
                    <mxGeometry relative="1" as="geometry"/>
                </mxCell>
                <mxCell id="62" value="5V/12V mains adapter" style="rounded=0;whiteSpace=wrap;html=1;" vertex="1" parent="1">
                    <mxGeometry x="900" y="549.52" width="120" height="50" as="geometry"/>
                </mxCell>
                <mxCell id="71" style="edgeStyle=none;sketch=0;html=1;fontSize=16;startArrow=none;startFill=0;endArrow=classic;endFill=1;" edge="1" parent="1" source="70" target="31">
                    <mxGeometry relative="1" as="geometry"/>
                </mxCell>
                <mxCell id="70" value="Solar panel&lt;br&gt;(small, lower power)" style="rounded=0;whiteSpace=wrap;html=1;" vertex="1" parent="1">
                    <mxGeometry x="900" y="609.52" width="120" height="50" as="geometry"/>
                </mxCell>
                <mxCell id="72" value="&lt;b&gt;Main server&lt;/b&gt;" style="ellipse;shape=cloud;whiteSpace=wrap;html=1;fontSize=16;" vertex="1" parent="1">
                    <mxGeometry x="70" y="30" width="140" height="80" as="geometry"/>
                </mxCell>
                <mxCell id="74" style="edgeStyle=none;sketch=0;html=1;fontSize=16;startArrow=none;startFill=0;endArrow=classic;endFill=1;fillColor=#e51400;strokeColor=#B20000;" edge="1" parent="1" source="34" target="72">
                    <mxGeometry relative="1" as="geometry"/>
                </mxCell>
                <mxCell id="75" value="&lt;font style=&quot;font-size: 12px;&quot;&gt;backup, in case of &lt;br&gt;mains power fault&lt;/font&gt;" style="edgeLabel;html=1;align=center;verticalAlign=middle;resizable=0;points=[];fontSize=16;" vertex="1" connectable="0" parent="74">
                    <mxGeometry x="0.4967" y="1" relative="1" as="geometry">
                        <mxPoint x="22" y="6" as="offset"/>
                    </mxGeometry>
                </mxCell>
                <mxCell id="77" value="&lt;font style=&quot;font-size: 10px;&quot;&gt;Power supplied either via mains adapter, or solar cell in case no mains power is available (in the field)&lt;/font&gt;" style="shape=note;strokeWidth=2;fontSize=14;size=20;whiteSpace=wrap;html=1;fillColor=#fff2cc;strokeColor=#d6b656;fontColor=#666600;" vertex="1" parent="1">
                    <mxGeometry x="900" y="440" width="190" height="89.52" as="geometry"/>
                </mxCell>
                <mxCell id="85" value="&lt;font style=&quot;font-size: 10px;&quot;&gt;Due to internal battery, hub can detect power outage, and report it via SMS/GSM internet, before shutting down (go to sleep) for some time to check power again later&amp;nbsp;&lt;/font&gt;" style="shape=note;strokeWidth=2;fontSize=14;size=20;whiteSpace=wrap;html=1;fillColor=#fff2cc;strokeColor=#d6b656;fontColor=#666600;" vertex="1" parent="1">
                    <mxGeometry x="900" y="60" width="190" height="130" as="geometry"/>
                </mxCell>
                <mxCell id="94" value="&lt;span style=&quot;font-weight: 400;&quot;&gt;Sensors (customizable)&lt;/span&gt;" style="swimlane;whiteSpace=wrap;html=1;fontSize=12;" vertex="1" parent="1">
                    <mxGeometry x="50" y="577.14" width="300" height="115.24" as="geometry"/>
                </mxCell>
                <mxCell id="96" value="temp, humidity, atm. pressure, light,microwave &#10;presence sensor, PIR, reed switch for doors, &#10;air quality (mostly dust particles), microphone/sound &#10;sensor, knock-over sensor (when something falls), &#10;fire sensor, soil moisture, weight scale..." style="text;align=center;verticalAlign=middle;resizable=0;points=[];autosize=1;strokeColor=none;fillColor=none;fontSize=12;glass=0;horizontal=1;" vertex="1" parent="94">
                    <mxGeometry y="24.999999999999993" width="300" height="90" as="geometry"/>
                </mxCell>
                <mxCell id="97" style="edgeStyle=none;sketch=0;html=1;fontSize=12;startArrow=classic;startFill=1;endArrow=classic;endFill=1;" edge="1" parent="1" source="96">
                    <mxGeometry relative="1" as="geometry">
                        <mxPoint x="390" y="647.14" as="targetPoint"/>
                    </mxGeometry>
                </mxCell>
                <mxCell id="100" style="edgeStyle=none;sketch=0;html=1;fontSize=12;startArrow=classic;startFill=1;endArrow=classic;endFill=1;" edge="1" parent="1" source="98">
                    <mxGeometry relative="1" as="geometry">
                        <mxPoint x="390" y="736.1299999999999" as="targetPoint"/>
                    </mxGeometry>
                </mxCell>
                <mxCell id="98" value="&lt;span style=&quot;font-weight: 400;&quot;&gt;Actuators (customizable)&lt;/span&gt;" style="swimlane;whiteSpace=wrap;html=1;fontSize=12;" vertex="1" parent="1">
                    <mxGeometry x="50" y="702.26" width="300" height="67.74" as="geometry"/>
                </mxCell>
                <mxCell id="99" value="buzzer, alarm/siren, LEDs, oled/LCD/display, &#10;linear actuator, servo motor, relay..." style="text;align=center;verticalAlign=middle;resizable=0;points=[];autosize=1;strokeColor=none;fillColor=none;fontSize=12;glass=0;horizontal=1;" vertex="1" parent="98">
                    <mxGeometry x="20" y="27.73999999999999" width="260" height="40" as="geometry"/>
                </mxCell>
                <mxCell id="101" value="&lt;font style=&quot;font-size: 10px;&quot;&gt;Support for OTA updates, auto error detections and reporting/mitigation. Sending a heartbeat and status regularly to the hub. Setup quickly configurable. Option for event reporting (monitoring a sensor and reporting any change immediately: for example if a door is open)&lt;/font&gt;" style="shape=note;strokeWidth=2;fontSize=14;size=20;whiteSpace=wrap;html=1;fillColor=#fff2cc;strokeColor=#d6b656;fontColor=#666600;" vertex="1" parent="1">
                    <mxGeometry x="900" y="679.76" width="250" height="130" as="geometry"/>
                </mxCell>
            </root>
        </mxGraphModel>
    </diagram>
</mxfile>